<svg xmlns="http://www.w3.org/2000/svg" xmlns:xlink="http://www.w3.org/1999/xlink" width="17.112" height="15.654" viewBox="0 0 17.112 15.654">
  <defs>
    <clipPath id="clip-path">
      <rect width="17.112" height="15.654" fill="none"/>
    </clipPath>
  </defs>
  <g id="heart" clip-path="url(#clip-path)">
    <g id="Group_203" data-name="Group 203">
      <path id="Path_471" data-name="Path 471" d="M17.583,4.472V5.644c-.034.179-.076.359-.11.538A7.036,7.036,0,0,1,15.5,9.865c-1.483,1.531-3.034,3-4.565,4.489-.621.607-1.269,1.186-1.931,1.807C7.122,14.368,5.232,12.616,3.419,10.8A16.628,16.628,0,0,1,1.432,8.348a5.364,5.364,0,0,1-.91-3.772A4.519,4.519,0,0,1,3.584.776,4.172,4.172,0,0,1,8.06,1.824a13.4,13.4,0,0,1,1,1.138c.138-.186.262-.379.407-.552A4.382,4.382,0,0,1,14.018.638a4.594,4.594,0,0,1,3.434,3.379C17.5,4.169,17.542,4.32,17.583,4.472Z" transform="translate(-0.472 -0.507)" fill="none" stroke="#fff" stroke-miterlimit="10" stroke-width="1.5"/>
    </g>
  </g>
</svg>
