<svg xmlns="http://www.w3.org/2000/svg" width="13.653" height="16.48" viewBox="0 0 13.653 16.48">
  <g id="pin" transform="translate(-203 -168)">
    <path id="Path_145" data-name="Path 145" d="M1.995-32.005a6.826,6.826,0,0,1,9.654,0h0a6.826,6.826,0,0,1,0,9.654L6.822-17.525,1.995-22.351a6.826,6.826,0,0,1,0-9.654Z" transform="translate(203.005 202.004)" fill="#1c50ff" fill-rule="evenodd"/>
    <path id="Path_146" data-name="Path 146" d="M11.437-20.126a2.437,2.437,0,0,0,2.437-2.437A2.437,2.437,0,0,0,11.437-25,2.437,2.437,0,0,0,9-22.563,2.437,2.437,0,0,0,11.437-20.126Z" transform="translate(198.389 197.389)" fill="#fff" fill-rule="evenodd"/>
  </g>
</svg>
